#!OML:ASF X:\für Bonn\!DataBase\2005_08_10_Bjorn_Final\c3d\bjorn.ASF
:FULLY-SPECIFIED
:DEGREES
404
root 1.51881 18.7157 8.54785 -184.026 21.7389 175.23
lowerback -4.03246 2.35605 3.10503
upperback 11.5198 4.06748 -1.26437
thorax 15.3116 2.80121 -2.32693
lowerneck -2.19819 0.307762 4.81528
upperneck 22.1144 4.0548 -10.4506
head 7.37217 2.18533 -3.89205
rclavicle -5.725e-014 1.07344e-014
rhumerus -70.4735 -64.2155 -22.2749
rradius 11.4152
rwrist 49.2149
rhand -13.1969 -10.0577
rfingers 7.12502
rthumb 12.9033 -39.6388
lclavicle -5.725e-014 1.07344e-014
lhumerus 94.6012 122.986 183.234
lradius 9.10522
lwrist -95.6799
lhand -3.86116 -4.76697
lfingers 7.12502
lthumb 21.8873 24.0151
rfemur 535.025 -176 -527.817
rtibia 34.9986
rfoot -24.5451 16.6187
rtoes -16.4106
lfemur 338.69 -3.49215 351.139
ltibia 28.1404
lfoot -2.99734 -6.46743
ltoes -17.7523
405
root 1.516 18.7171 8.61087 -183.919 21.4052 175.314
lowerback -3.83578 2.31776 3.22345
upperback 11.7154 4.03624 -1.11854
thorax 15.4202 2.81109 -2.2345
lowerneck -2.19383 0.210469 4.73522
upperneck 21.8715 3.98593 -10.8696
head 7.29045 2.11724 -4.01966
rclavicle 6.2816e-014 -2.54444e-014
rhumerus -73.4366 -63.0174 -18.8884
rradius 11.5413
rwrist 46.5362
rhand -13.157 -10.6356
rfingers 7.12502
rthumb 12.9419 -40.2143
lclavicle 6.2816e-014 -2.54444e-014
lhumerus 104.563 125.719 195.423
lradius 9.04301
lwrist -90.7805
lhand -4.22786 -6.47796
lfingers 7.12502
lthumb 21.5351 22.3448
rfemur 534.671 -175.648 -527.679
rtibia 35.2325
rfoot -24.4535 16.6116
rtoes -16.324
lfemur 338.577 -3.48733 351.027
ltibia 28.2374
lfoot -3.3994 -6.38938
ltoes -17.4116
406
root 1.51209 18.721 8.67389 -183.817 21.07 175.411
lowerback -3.62911 2.27843 3.33924
upperback 11.8983 4.00167 -0.959578
thorax 15.5051 2.81723 -2.12727
lowerneck -2.18792 0.0915189 4.64967
upperneck 21.7065 3.91412 -11.3086
head 7.23375 2.05073 -4.15385
rclavicle -6.36111e-015 7.95139e-015
rhumerus -74.3861 -61.4083 -17.7961
rradius 11.7505
rwrist 43.2641
rhand -13.0453 -10.9357
rfingers 7.12502
rthumb 13.0495 -40.5075
lclavicle -6.36111e-015 7.95139e-015
lhumerus 112.534 129.437 205.908
lradius 9.11107
lwrist -85.902
lhand -5.11213 -7.66744
lfingers 7.12502
lthumb 20.6857 21.2502
rfemur 534.344 -175.295 -527.537
rtibia 35.4244
rfoot -24.3205 16.5838
rtoes -16.1988
lfemur 338.492 -3.48107 350.899
ltibia 28.3546
lfoot -3.81879 -6.25111
ltoes -17.1252
407
root 1.50883 18.7277 8.73557 -183.689 20.7506 175.509
lowerback -3.44196 2.23832 3.42734
upperback 12.0419 3.95897 -0.788658
thorax 15.5499 2.81092 -1.99375
lowerneck -2.19909 -0.0322697 4.51317
upperneck 21.6809 3.86745 -11.7056
head 7.22677 1.99986 -4.265
rclavicle -5.98342e-014 2.78299e-014
rhumerus -73.8568 -59.4507 -18.4491
rradius 12.0005
rwrist 39.7796
rhand -12.802 -10.9625
rfingers 7.12502
rthumb 13.284 -40.5191
lclavicle -5.98342e-014 2.78299e-014
lhumerus 118.51 133.943 214.699
lradius 9.36589
lwrist -80.9325
lhand -6.23154 -8.46901
lfingers 7.12502
lthumb 19.6098 20.562
rfemur 534.023 -174.924 -527.392
rtibia 35.5562
rfoot -24.1511 16.61
rtoes -16.0757
lfemur 338.401 -3.44826 350.749
ltibia 28.5182
lfoot -4.31381 -6.03524
ltoes -17.3722
408
root 1.5043 18.7386 8.79748 -183.591 20.4215 175.567
lowerback -3.21765 2.2088 3.50041
upperback 12.1527 3.93336 -0.64569
thorax 15.5325 2.81092 -1.884
lowerneck -2.20145 -0.159562 4.35117
upperneck 21.7736 3.8142 -11.958
head 7.25405 1.95667 -4.3256
rclavicle 7.35503e-014 -3.73715e-014
rhumerus -72.1695 -57.0871 -20.6886
rradius 12.3236
rwrist 35.9955
rhand -12.4017 -10.7728
rfingers 7.12502
rthumb 13.6699 -40.3038
lclavicle 7.35503e-014 -3.73715e-014
lhumerus 122.95 138.966 222.204
lradius 9.8066
lwrist -75.8986
lhand -7.30027 -8.91857
lfingers 7.12502
lthumb 18.582 20.2139
rfemur 533.743 -174.561 -527.294
rtibia 35.6263
rfoot -23.9088 16.6192
rtoes -15.8673
lfemur 338.355 -3.31165 350.511
ltibia 28.7142
lfoot -4.81445 -5.85878
ltoes -18.0236
409
root 1.49885 18.7522 8.85893 -183.476 20.0819 175.604
lowerback -3.01502 2.18543 3.58676
upperback 12.2368 3.91343 -0.534963
thorax 15.5008 2.81542 -1.81701
lowerneck -2.12114 -0.287041 4.23509
upperneck 21.8336 3.74981 -12.1885
head 7.2547 1.91695 -4.38746
rclavicle -1.27222e-014 -1.11319e-014
rhumerus -70.3567 -54.5555 -23.3535
rradius 12.6943
rwrist 32.3365
rhand -11.9073 -10.3203
rfingers 7.12502
rthumb 14.1464 -39.8187
lclavicle -1.27222e-014 -1.11319e-014
lhumerus 126.243 144.242 228.779
lradius 10.305
lwrist -70.7858
lhand -8.27526 -9.00888
lfingers 7.12502
lthumb 17.644 20.2106
rfemur 533.469 -174.205 -527.21
rtibia 35.644
rfoot -23.674 16.6036
rtoes -15.7095
lfemur 338.301 -3.03734 350.2
ltibia 28.9778
lfoot -5.37428 -5.66574
ltoes -19.0201
410
root 1.49321 18.7701 8.9207 -183.394 19.7526 175.621
lowerback -2.77874 2.16515 3.64848
upperback 12.3136 3.9029 -0.430397
thorax 15.4375 2.82182 -1.74412
lowerneck -2.05902 -0.421987 4.11435
upperneck 21.9582 3.68977 -12.4077
head 7.27996 1.88075 -4.44553
rclavicle 1.27222e-014 2.3059e-014
rhumerus -68.5017 -51.8563 -26.3343
rradius 13.0998
rwrist 28.7684
rhand -11.3725 -9.58012
rfingers 7.12502
rthumb 14.6616 -39.0418
lclavicle 1.27222e-014 2.3059e-014
lhumerus 127.863 148.551 233.207
lradius 10.7587
lwrist -67.1323
lhand -9.16478 -9.06726
lfingers 7.12502
lthumb 16.7878 20.227
rfemur 533.24 -173.923 -527.141
rtibia 35.6211
rfoot -23.455 16.5286
rtoes -15.5875
lfemur 338.301 -2.69377 349.833
ltibia 29.2863
lfoot -5.99781 -5.43699
ltoes -20.2037
411
root 1.48628 18.7861 8.9821 -183.297 19.4219 175.598
lowerback -2.58066 2.14546 3.68037
upperback 12.3825 3.89572 -0.347959
thorax 15.389 2.82695 -1.67726
lowerneck -2.02505 -0.553525 4.02855
upperneck 22.1036 3.62958 -12.6135
head 7.31721 1.84612 -4.50585
rclavicle -1.11319e-014 7.95139e-015
rhumerus -66.7854 -49.0607 -29.4498
rradius 13.5782
rwrist 25.3823
rhand -10.8101 -8.72264
rfingers 7.12502
rthumb 15.2034 -38.144
lclavicle -1.11319e-014 7.95139e-015
lhumerus 128.514 151.822 236.122
lradius 11.1136
lwrist -64.8687
lhand -10.1435 -9.0477
lfingers 7.12502
lthumb 15.8455 20.3239
rfemur 532.986 -173.638 -527.112
rtibia 35.5849
rfoot -23.2228 16.4444
rtoes -15.4648
lfemur 338.27 -2.32758 349.405
ltibia 29.6466
lfoot -6.60234 -5.13328
ltoes -21.3087
